<svg width="1440" height="850" viewBox="0 0 1440 850" fill="none" xmlns="http://www.w3.org/2000/svg">
<rect width="1440" height="850" fill="black"/>
<path d="M135.922 148.02V159H134.122V148.02H130.54V146.4H139.504V148.02H135.922ZM143.223 159H141.477V145.86H143.223V150.648L144.501 149.91H147.219L149.307 151.116V159H147.561V151.476H143.223V159ZM153.928 150V159H152.182V150H153.928ZM152.092 147.786V145.86H154.018V147.786H152.092ZM163.573 154.86V157.794L161.485 159H156.805V157.434H161.827V155.22H158.893L156.805 154.014V151.206L158.893 150H163.393V151.566H158.551V153.654H161.485L163.573 154.86ZM172.877 150V159H171.131V150H172.877ZM171.041 147.786V145.86H172.967V147.786H171.041ZM182.522 154.86V157.794L180.434 159H175.754V157.434H180.776V155.22H177.842L175.754 154.014V151.206L177.842 150H182.342V151.566H177.5V153.654H180.434L182.522 154.86ZM191.467 155.31V157.524H195.085V155.31H191.467ZM191.809 159.09L189.721 157.884V154.95L191.809 153.744H195.085V151.566H190.621V150H194.743L196.831 151.206V159.09H196.363L195.085 158.352L193.807 159.09H191.809ZM203.669 151.566V150H205.325V148.488L207.071 147.48V150H209.231V151.566H207.071V157.434H209.231V159H207.413L205.325 157.794V151.566H203.669ZM218.864 157.434V159H213.842L211.754 157.794V151.116L213.842 149.91H216.776L218.864 151.116V155.112H213.5V157.434H218.864ZM213.5 151.476V153.546H217.118V151.476H213.5ZM228.507 154.86V157.794L226.419 159H221.739V157.434H226.761V155.22H223.827L221.739 154.014V151.206L223.827 150H228.327V151.566H223.485V153.654H226.419L228.507 154.86ZM230.669 151.566V150H232.325V148.488L234.071 147.48V150H236.231V151.566H234.071V157.434H236.231V159H234.413L232.325 157.794V151.566H230.669ZM242.71 151.566V150H244.366V148.488L246.112 147.48V150H248.272V151.566H246.112V157.434H248.272V159H246.454L244.366 157.794V151.566H242.71ZM258.445 157.884L256.357 159.09H252.883L250.795 157.884V151.116L252.883 149.91H256.357L258.445 151.116V157.884ZM252.541 151.476V157.524H256.699V151.476H252.541ZM267.747 151.566V157.434H272.751V159H268.089L266.001 157.794V151.206L268.089 150H272.751V151.566H267.747ZM277.01 159H275.264V145.86H277.01V150.648L278.288 149.91H281.006L283.094 151.116V159H281.348V151.476H277.01V159ZM293.079 157.434V159H288.057L285.969 157.794V151.116L288.057 149.91H290.991L293.079 151.116V155.112H287.715V157.434H293.079ZM287.715 151.476V153.546H291.333V151.476H287.715ZM297.7 151.566V157.434H302.704V159H298.042L295.954 157.794V151.206L298.042 150H302.704V151.566H297.7ZM306.963 145.86V154.482H306.999L310.707 150H312.795L309.321 154.068L313.335 159H311.193L308.277 155.31L306.963 156.858V159H305.217V145.86H306.963ZM321.202 150V159H319.456V150H321.202ZM319.366 147.786V145.86H321.292V147.786H319.366ZM323.359 151.566V150H325.015V147.066L327.103 145.86H328.921V147.426H326.761V150H328.921V151.566H326.761V159H325.015V151.566H323.359ZM336.579 162.6L338.145 158.586L334.671 150H336.417L338.973 156.408H339.009L341.547 150H343.293L338.289 162.6H336.579ZM352.735 157.884L350.647 159.09H347.173L345.085 157.884V151.116L347.173 149.91H350.647L352.735 151.116V157.884ZM346.831 151.476V157.524H350.989V151.476H346.831ZM355.614 157.884V150H357.36V157.524H361.518V150H363.264V159.09H361.95L361.518 158.352L360.24 159.09H357.702L355.614 157.884ZM372.205 155.31V157.524H375.823V155.31H372.205ZM372.547 159.09L370.459 157.884V154.95L372.547 153.744H375.823V151.566H371.359V150H375.481L377.569 151.206V159.09H377.101L375.823 158.352L374.545 159.09H372.547ZM385.474 151.566H382.198V159H380.452V150H381.766L382.198 150.738L383.476 150H385.474V151.566ZM394.558 157.434V159H389.536L387.448 157.794V151.116L389.536 149.91H392.47L394.558 151.116V155.112H389.194V157.434H394.558ZM389.194 151.476V153.546H392.812V151.476H389.194ZM409.218 157.434V159H404.196L402.108 157.794V151.116L404.196 149.91H407.13L409.218 151.116V155.112H403.854V157.434H409.218ZM403.854 151.476V153.546H407.472V151.476H403.854ZM414.18 159L412.092 157.794V145.86H413.838V157.434H415.998V159H414.18ZM419.551 150V159H417.805V150H419.551ZM417.715 147.786V145.86H419.641V147.786H417.715ZM424.174 159L422.428 157.992V156.372L423.706 155.634L422.428 154.896V151.206L424.516 150H430.258V150.612L428.62 151.566L429.718 152.214V154.698L427.63 155.904H424.174V157.434H428.17L430.258 158.64V161.484L428.17 162.69H424.156L422.068 161.484V160.368L423.814 159.36V161.16H428.512V159H424.174ZM424.174 151.53V154.374H427.972V151.53H424.174ZM434.528 150V159H432.782V150H434.528ZM432.692 147.786V145.86H434.618V147.786H432.692ZM440.429 149.91H443.147L445.235 151.116V157.884L443.147 159.09H440.429L439.151 158.352L437.873 159.09H437.405V145.86H439.151V150.648L440.429 149.91ZM439.151 151.476V157.524H443.489V151.476H439.151ZM450.198 159L448.11 157.794V145.86H449.856V157.434H452.016V159H450.198ZM460.933 157.434V159H455.911L453.823 157.794V151.116L455.911 149.91H458.845L460.933 151.116V155.112H455.569V157.434H460.933ZM455.569 151.476V153.546H459.187V151.476H455.569ZM467.763 151.566V150H469.419V148.488L471.165 147.48V150H473.325V151.566H471.165V157.434H473.325V159H471.507L469.419 157.794V151.566H467.763ZM483.498 157.884L481.41 159.09H477.936L475.848 157.884V151.116L477.936 149.91H481.41L483.498 151.116V157.884ZM477.594 151.476V157.524H481.752V151.476H477.594ZM494.077 149.91H496.795L498.883 151.116V157.884L496.795 159.09H494.077L492.799 158.352L491.521 159.09H491.053V145.86H492.799V150.648L494.077 149.91ZM492.799 151.476V157.524H497.137V151.476H492.799ZM508.868 157.434V159H503.846L501.758 157.794V151.116L503.846 149.91H506.78L508.868 151.116V155.112H503.504V157.434H508.868ZM503.504 151.476V153.546H507.122V151.476H503.504ZM517.805 155.31V157.524H521.423V155.31H517.805ZM518.147 159.09L516.059 157.884V154.95L518.147 153.744H521.423V151.566H516.959V150H521.081L523.169 151.206V159.09H522.701L521.423 158.352L520.145 159.09H518.147ZM536.469 159.09H533.751L532.473 158.352V162.6H530.727V149.91H532.041L532.473 150.648L533.751 149.91H536.469L538.557 151.116V157.884L536.469 159.09ZM532.473 151.476V157.524H536.811V151.476H532.473ZM542.818 155.31V157.524H546.436V155.31H542.818ZM543.16 159.09L541.072 157.884V154.95L543.16 153.744H546.436V151.566H541.972V150H546.094L548.182 151.206V159.09H547.714L546.436 158.352L545.158 159.09H543.16ZM556.087 151.566H552.811V159H551.065V150H552.379L552.811 150.738L554.089 150H556.087V151.566ZM557.341 151.566V150H558.997V148.488L560.743 147.48V150H562.903V151.566H560.743V157.434H562.903V159H561.085L558.997 157.794V151.566H557.341ZM577.752 157.884L575.664 159.09H572.19L570.102 157.884V151.116L572.19 149.91H575.664L577.752 151.116V157.884ZM571.848 151.476V157.524H576.006V151.476H571.848ZM579.911 151.566V150H581.567V147.066L583.655 145.86H585.473V147.426H583.313V150H585.473V151.566H583.313V159H581.567V151.566H579.911ZM591.583 151.566V150H593.239V148.488L594.985 147.48V150H597.145V151.566H594.985V157.434H597.145V159H595.327L593.239 157.794V151.566H591.583ZM601.415 159H599.669V145.86H601.415V150.648L602.693 149.91H605.411L607.499 151.116V159H605.753V151.476H601.415V159ZM617.484 157.434V159H612.462L610.374 157.794V151.116L612.462 149.91H615.396L617.484 151.116V155.112H612.12V157.434H617.484ZM612.12 151.476V153.546H615.738V151.476H612.12ZM625.034 157.884V150H626.78V157.524H630.938V150H632.684V159.09H631.37L630.938 158.352L629.66 159.09H627.122L625.034 157.884ZM643.213 151.116V159H641.467V151.476H637.309V159H635.563V149.91H636.877L637.309 150.648L638.587 149.91H641.125L643.213 151.116ZM647.838 150V159H646.092V150H647.838ZM646.002 147.786V145.86H647.928V147.786H646.002ZM655.521 159.09H652.803L650.715 157.884V151.116L652.803 149.91H655.521L656.799 150.648L658.077 149.91H658.545V162.6H656.799V158.352L655.521 159.09ZM656.799 157.524V151.476H652.461V157.524H656.799ZM661.42 157.884V150H663.166V157.524H667.324V150H669.07V159.09H667.756L667.324 158.352L666.046 159.09H663.508L661.42 157.884ZM679.06 157.434V159H674.038L671.95 157.794V151.116L674.038 149.91H676.972L679.06 151.116V155.112H673.696V157.434H679.06ZM673.696 151.476V153.546H677.314V151.476H673.696ZM685.89 151.566V150H687.546V148.488L689.292 147.48V150H691.452V151.566H689.292V157.434H691.452V159H689.634L687.546 157.794V151.566H685.89ZM701.085 157.434V159H696.063L693.975 157.794V151.116L696.063 149.91H698.997L701.085 151.116V155.112H695.721V157.434H701.085ZM695.721 151.476V153.546H699.339V151.476H695.721ZM705.346 155.31V157.524H708.964V155.31H705.346ZM705.688 159.09L703.6 157.884V154.95L705.688 153.744H708.964V151.566H704.5V150H708.622L710.71 151.206V159.09H710.242L708.964 158.352L707.686 159.09H705.688ZM725.706 151.116V159H723.96V151.476H720.522V159H718.776V151.476H715.338V159H713.592V149.91H714.906L715.338 150.648L716.616 149.91H718.434L720.108 150.882L721.8 149.91H723.618L725.706 151.116ZM740.912 157.884L738.824 159.09H735.35L733.262 157.884V151.116L735.35 149.91H738.824L740.912 151.116V157.884ZM735.008 151.476V157.524H739.166V151.476H735.008ZM743.072 151.566V150H744.728V147.066L746.816 145.86H748.634V147.426H746.474V150H748.634V151.566H746.474V159H744.728V151.566H743.072ZM761.115 146.4L765.615 159H763.851L762.789 156.012H757.209L756.147 159H754.383L758.883 146.4H761.115ZM759.981 148.182L757.785 154.392H762.213L760.017 148.182H759.981ZM774.185 154.86V157.794L772.097 159H767.417V157.434H772.439V155.22H769.505L767.417 154.014V151.206L769.505 150H774.005V151.566H769.163V153.654H772.097L774.185 154.86ZM776.347 151.566V150H778.003V148.488L779.749 147.48V150H781.909V151.566H779.749V157.434H781.909V159H780.091L778.003 157.794V151.566H776.347ZM789.454 151.566H786.178V159H784.432V150H785.746L786.178 150.738L787.456 150H789.454V151.566ZM799.078 157.884L796.99 159.09H793.516L791.428 157.884V151.116L793.516 149.91H796.99L799.078 151.116V157.884ZM793.174 151.476V157.524H797.332V151.476H793.174ZM809.608 151.116V159H807.862V151.476H803.704V159H801.958V149.91H803.272L803.704 150.648L804.982 149.91H807.52L809.608 151.116ZM813.873 155.31V157.524H817.491V155.31H813.873ZM814.215 159.09L812.127 157.884V154.95L814.215 153.744H817.491V151.566H813.027V150H817.149L819.237 151.206V159.09H818.769L817.491 158.352L816.213 159.09H814.215ZM822.12 157.884V150H823.866V157.524H828.024V150H829.77V159.09H828.456L828.024 158.352L826.746 159.09H824.208L822.12 157.884ZM831.929 151.566V150H833.585V148.488L835.331 147.48V150H837.491V151.566H835.331V157.434H837.491V159H835.673L833.585 157.794V151.566H831.929ZM846.782 154.86V157.794L844.694 159H840.014V157.434H845.036V155.22H842.102L840.014 154.014V151.206L842.102 150H846.602V151.566H841.76V153.654H844.694L846.782 154.86ZM861.666 159L859.722 152.124H859.686L857.76 159H855.69L853.44 150H855.06L856.77 157.038H856.806L858.786 150H860.64L862.62 157.038H862.656L864.366 150H865.986L863.736 159H861.666ZM869.709 159H867.963V145.86H869.709V150.648L870.987 149.91H873.705L875.793 151.116V159H874.047V151.476H869.709V159ZM886.319 157.884L884.231 159.09H880.757L878.669 157.884V151.116L880.757 149.91H884.231L886.319 151.116V157.884ZM880.415 151.476V157.524H884.573V151.476H880.415ZM895.26 155.31V157.524H898.878V155.31H895.26ZM895.602 159.09L893.514 157.884V154.95L895.602 153.744H898.878V151.566H894.414V150H898.536L900.624 151.206V159.09H900.156L898.878 158.352L897.6 159.09H895.602ZM908.528 151.566H905.252V159H903.506V150H904.82L905.252 150.738L906.53 150H908.528V151.566ZM917.613 157.434V159H912.591L910.503 157.794V151.116L912.591 149.91H915.525L917.613 151.116V155.112H912.249V157.434H917.613ZM912.249 151.476V153.546H915.867V151.476H912.249ZM926.909 159L925.163 157.992V156.372L926.441 155.634L925.163 154.896V151.206L927.251 150H932.993V150.612L931.355 151.566L932.453 152.214V154.698L930.365 155.904H926.909V157.434H930.905L932.993 158.64V161.484L930.905 162.69H926.891L924.803 161.484V160.368L926.549 159.36V161.16H931.247V159H926.909ZM926.909 151.53V154.374H930.707V151.53H926.909ZM943.166 157.884L941.078 159.09H937.604L935.516 157.884V151.116L937.604 149.91H941.078L943.166 151.116V157.884ZM937.262 151.476V157.524H941.42V151.476H937.262ZM947.791 150V159H946.045V150H947.791ZM945.955 147.786V145.86H947.881V147.786H945.955ZM958.319 151.116V159H956.573V151.476H952.415V159H950.669V149.91H951.983L952.415 150.648L953.693 149.91H956.231L958.319 151.116ZM962.944 159L961.198 157.992V156.372L962.476 155.634L961.198 154.896V151.206L963.286 150H969.028V150.612L967.39 151.566L968.488 152.214V154.698L966.4 155.904H962.944V157.434H966.94L969.028 158.64V161.484L966.94 162.69H962.926L960.838 161.484V160.368L962.584 159.36V161.16H967.282V159H962.944ZM962.944 151.53V154.374H966.742V151.53H962.944ZM975.507 151.566V150H977.163V148.488L978.909 147.48V150H981.069V151.566H978.909V157.434H981.069V159H979.251L977.163 157.794V151.566H975.507ZM991.242 157.884L989.154 159.09H985.68L983.592 157.884V151.116L985.68 149.91H989.154L991.242 151.116V157.884ZM985.338 151.476V157.524H989.496V151.476H985.338ZM998.077 151.566V150H999.733V148.488L1001.48 147.48V150H1003.64V151.566H1001.48V157.434H1003.64V159H1001.82L999.733 157.794V151.566H998.077ZM1011.18 151.566H1007.91V159H1006.16V150H1007.48L1007.91 150.738L1009.19 150H1011.18V151.566ZM1014.54 155.31V157.524H1018.16V155.31H1014.54ZM1014.89 159.09L1012.8 157.884V154.95L1014.89 153.744H1018.16V151.566H1013.7V150H1017.82L1019.91 151.206V159.09H1019.44L1018.16 158.352L1016.88 159.09H1014.89ZM1023.42 150L1026.07 157.344H1026.1L1028.77 150H1030.48L1027.15 159H1025.04L1021.71 150H1023.42ZM1039.39 157.434V159H1034.37L1032.28 157.794V151.116L1034.37 149.91H1037.31L1039.39 151.116V155.112H1034.03V157.434H1039.39ZM1034.03 151.476V153.546H1037.65V151.476H1034.03ZM1044.36 159L1042.27 157.794V145.86H1044.01V157.434H1046.17V159H1044.36ZM1051.94 151.566V150H1053.59V148.488L1055.34 147.48V150H1057.5V151.566H1055.34V157.434H1057.5V159H1055.68L1053.59 157.794V151.566H1051.94ZM1067.67 157.884L1065.58 159.09H1062.11L1060.02 157.884V151.116L1062.11 149.91H1065.58L1067.67 151.116V157.884ZM1061.77 151.476V157.524H1065.93V151.476H1061.77ZM1082 154.86V157.794L1079.91 159H1075.23V157.434H1080.25V155.22H1077.32L1075.23 154.014V151.206L1077.32 150H1081.82V151.566H1076.97V153.654H1079.91L1082 154.86ZM1090.62 159.09H1087.9L1086.62 158.352V162.6H1084.88V149.91H1086.19L1086.62 150.648L1087.9 149.91H1090.62L1092.71 151.116V157.884L1090.62 159.09ZM1086.62 151.476V157.524H1090.96V151.476H1086.62ZM1096.97 155.31V157.524H1100.59V155.31H1096.97ZM1097.31 159.09L1095.22 157.884V154.95L1097.31 153.744H1100.59V151.566H1096.12V150H1100.24L1102.33 151.206V159.09H1101.86L1100.59 158.352L1099.31 159.09H1097.31ZM1106.96 151.566V157.434H1111.97V159H1107.3L1105.22 157.794V151.206L1107.3 150H1111.97V151.566H1106.96ZM1121.59 157.434V159H1116.57L1114.48 157.794V151.116L1116.57 149.91H1119.5L1121.59 151.116V155.112H1116.23V157.434H1121.59ZM1116.23 151.476V153.546H1119.84V151.476H1116.23ZM1128.42 151.566V150H1130.08V148.488L1131.82 147.48V150H1133.98V151.566H1131.82V157.434H1133.98V159H1132.16L1130.08 157.794V151.566H1128.42ZM1144.15 157.884L1142.07 159.09H1138.59L1136.5 157.884V151.116L1138.59 149.91H1142.07L1144.15 151.116V157.884ZM1138.25 151.476V157.524H1142.41V151.476H1138.25ZM1157.45 159.09H1154.73L1153.46 158.352V162.6H1151.71V149.91H1153.02L1153.46 150.648L1154.73 149.91H1157.45L1159.54 151.116V157.884L1157.45 159.09ZM1153.46 151.476V157.524H1157.79V151.476H1153.46ZM1169.52 157.434V159H1164.5L1162.41 157.794V151.116L1164.5 149.91H1167.44L1169.52 151.116V155.112H1164.16V157.434H1169.52ZM1164.16 151.476V153.546H1167.78V151.476H1164.16ZM1177.42 151.566H1174.14V159H1172.4V150H1173.71L1174.14 150.738L1175.42 150H1177.42V151.566ZM1178.68 151.566V150H1180.33V147.066L1182.42 145.86H1184.24V147.426H1182.08V150H1184.24V151.566H1182.08V159H1180.33V151.566H1178.68ZM1194.04 157.884L1191.95 159.09H1188.48L1186.39 157.884V151.116L1188.48 149.91H1191.95L1194.04 151.116V157.884ZM1188.14 151.476V157.524H1192.3V151.476H1188.14ZM1201.94 151.566H1198.67V159H1196.92V150H1198.23L1198.67 150.738L1199.94 150H1201.94V151.566ZM1216.03 151.116V159H1214.28V151.476H1210.85V159H1209.1V151.476H1205.66V159H1203.92V149.91H1205.23L1205.66 150.648L1206.94 149.91H1208.76L1210.43 150.882L1212.12 149.91H1213.94L1216.03 151.116ZM1235.7 151.116V159H1233.95V151.476H1230.52V159H1228.77V151.476H1225.33V159H1223.59V149.91H1224.9L1225.33 150.648L1226.61 149.91H1228.43L1230.1 150.882L1231.79 149.91H1233.61L1235.7 151.116ZM1239.97 155.31V157.524H1243.58V155.31H1239.97ZM1240.31 159.09L1238.22 157.884V154.95L1240.31 153.744H1243.58V151.566H1239.12V150H1243.24L1245.33 151.206V159.09H1244.86L1243.58 158.352L1242.31 159.09H1240.31ZM1255.86 151.116V159H1254.12V151.476H1249.96V159H1248.21V149.91H1249.53L1249.96 150.648L1251.24 149.91H1253.78L1255.86 151.116ZM1259.57 162.6L1261.14 158.586L1257.66 150H1259.41L1261.96 156.408H1262L1264.54 150H1266.28L1261.28 162.6H1259.57ZM136.462 177.566H133.186V185H131.44V176H132.754L133.186 176.738L134.464 176H136.462V177.566ZM145.546 183.434V185H140.524L138.436 183.794V177.116L140.524 175.91H143.458L145.546 177.116V181.112H140.182V183.434H145.546ZM140.182 177.476V179.546H143.8V177.476H140.182ZM149.05 176L151.696 183.344H151.732L154.396 176H156.106L152.776 185H150.67L147.34 176H149.05ZM165.563 183.884L163.475 185.09H160.001L157.913 183.884V177.116L160.001 175.91H163.475L165.563 177.116V183.884ZM159.659 177.476V183.524H163.817V177.476H159.659ZM170.53 185L168.442 183.794V171.86H170.188V183.434H172.348V185H170.53ZM174.155 183.884V176H175.901V183.524H180.059V176H181.805V185.09H180.491L180.059 184.352L178.781 185.09H176.243L174.155 183.884ZM183.964 177.566V176H185.62V174.488L187.366 173.48V176H189.526V177.566H187.366V183.434H189.526V185H187.708L185.62 183.794V177.566H183.964ZM193.795 176V185H192.049V176H193.795ZM191.959 173.786V171.86H193.885V173.786H191.959ZM204.322 183.884L202.234 185.09H198.76L196.672 183.884V177.116L198.76 175.91H202.234L204.322 177.116V183.884ZM198.418 177.476V183.524H202.576V177.476H198.418ZM214.852 177.116V185H213.106V177.476H208.948V185H207.202V175.91H208.516L208.948 176.648L210.226 175.91H212.764L214.852 177.116ZM219.117 181.31V183.524H222.735V181.31H219.117ZM219.459 185.09L217.371 183.884V180.95L219.459 179.744H222.735V177.566H218.271V176H222.393L224.481 177.206V185.09H224.013L222.735 184.352L221.457 185.09H219.459ZM232.386 177.566H229.11V185H227.364V176H228.678L229.11 176.738L230.388 176H232.386V177.566ZM235.188 188.6L236.754 184.586L233.28 176H235.026L237.582 182.408H237.618L240.156 176H241.902L236.898 188.6H235.188ZM253.392 177.566H250.116V185H248.37V176H249.684L250.116 176.738L251.394 176H253.392V177.566ZM262.476 183.434V185H257.454L255.366 183.794V177.116L257.454 175.91H260.388L262.476 177.116V181.112H257.112V183.434H262.476ZM257.112 177.476V179.546H260.73V177.476H257.112ZM272.118 180.86V183.794L270.03 185H265.35V183.434H270.372V181.22H267.438L265.35 180.014V177.206L267.438 176H271.938V177.566H267.096V179.654H270.03L272.118 180.86ZM282.111 183.434V185H277.089L275.001 183.794V177.116L277.089 175.91H280.023L282.111 177.116V181.112H276.747V183.434H282.111ZM276.747 177.476V179.546H280.365V177.476H276.747ZM286.371 181.31V183.524H289.989V181.31H286.371ZM286.713 185.09L284.625 183.884V180.95L286.713 179.744H289.989V177.566H285.525V176H289.647L291.735 177.206V185.09H291.267L289.989 184.352L288.711 185.09H286.713ZM299.64 177.566H296.364V185H294.618V176H295.932L296.364 176.738L297.642 176H299.64V177.566ZM303.36 177.566V183.434H308.364V185H303.702L301.614 183.794V177.206L303.702 176H308.364V177.566H303.36ZM312.624 185H310.878V171.86H312.624V176.648L313.902 175.91H316.62L318.708 177.116V185H316.962V177.476H312.624V185ZM328.693 183.434V185H323.671L321.583 183.794V177.116L323.671 175.91H326.605L328.693 177.116V181.112H323.329V183.434H328.693ZM323.329 177.476V179.546H326.947V177.476H323.329ZM338.335 180.86V183.794L336.247 185H331.567V183.434H336.589V181.22H333.655L331.567 180.014V177.206L333.655 176H338.155V177.566H333.313V179.654H336.247L338.335 180.86ZM341.577 185V182.3H344.277V185H341.577ZM364.152 181.85H365.952V183.884L363.864 185.09H359.13L357.042 183.884V173.516L359.13 172.31H363.864L365.952 173.516V175.55H364.152V173.93H358.842V183.47H364.152V181.85ZM376.483 183.884L374.395 185.09H370.921L368.833 183.884V177.116L370.921 175.91H374.395L376.483 177.116V183.884ZM370.579 177.476V183.524H374.737V177.476H370.579ZM391.476 177.116V185H389.73V177.476H386.292V185H384.546V177.476H381.108V185H379.362V175.91H380.676L381.108 176.648L382.386 175.91H384.204L385.878 176.882L387.57 175.91H389.388L391.476 177.116ZM400.098 185.09H397.38L396.102 184.352V188.6H394.356V175.91H395.67L396.102 176.648L397.38 175.91H400.098L402.186 177.116V183.884L400.098 185.09ZM396.102 177.476V183.524H400.44V177.476H396.102ZM407.149 185L405.061 183.794V171.86H406.807V183.434H408.967V185H407.149ZM417.884 183.434V185H412.862L410.774 183.794V177.116L412.862 175.91H415.796L417.884 177.116V181.112H412.52V183.434H417.884ZM412.52 177.476V179.546H416.138V177.476H412.52ZM420.038 177.566V176H421.694V174.488L423.44 173.48V176H425.6V177.566H423.44V183.434H425.6V185H423.782L421.694 183.794V177.566H420.038ZM435.234 183.434V185H430.212L428.124 183.794V177.116L430.212 175.91H433.146L435.234 177.116V181.112H429.87V183.434H435.234ZM429.87 177.476V179.546H433.488V177.476H429.87ZM442.064 177.566V176H443.72V174.488L445.466 173.48V176H447.626V177.566H445.466V183.434H447.626V185H445.808L443.72 183.794V177.566H442.064ZM451.895 185H450.149V171.86H451.895V176.648L453.173 175.91H455.891L457.979 177.116V185H456.233V177.476H451.895V185ZM467.964 183.434V185H462.942L460.854 183.794V177.116L462.942 175.91H465.876L467.964 177.116V181.112H462.6V183.434H467.964ZM462.6 177.476V179.546H466.218V177.476H462.6ZM474.794 177.566V176H476.45V174.488L478.196 173.48V176H480.356V177.566H478.196V183.434H480.356V185H478.538L476.45 183.794V177.566H474.794ZM489.989 183.434V185H484.967L482.879 183.794V177.116L484.967 175.91H487.901L489.989 177.116V181.112H484.625V183.434H489.989ZM484.625 177.476V179.546H488.243V177.476H484.625ZM499.632 180.86V183.794L497.544 185H492.864V183.434H497.886V181.22H494.952L492.864 180.014V177.206L494.952 176H499.452V177.566H494.61V179.654H497.544L499.632 180.86ZM501.794 177.566V176H503.45V174.488L505.196 173.48V176H507.356V177.566H505.196V183.434H507.356V185H505.538L503.45 183.794V177.566H501.794ZM520.617 181.31V183.524H524.235V181.31H520.617ZM520.959 185.09L518.871 183.884V180.95L520.959 179.744H524.235V177.566H519.771V176H523.893L525.981 177.206V185.09H525.513L524.235 184.352L522.957 185.09H520.959ZM536.514 177.116V185H534.768V177.476H530.61V185H528.864V175.91H530.178L530.61 176.648L531.888 175.91H534.426L536.514 177.116ZM541.481 175.91H544.199L545.477 176.648V171.86H547.223V185.09H545.909L545.477 184.352L544.199 185.09H541.481L539.393 183.884V177.116L541.481 175.91ZM545.477 183.524V177.476H541.139V183.524H545.477ZM556.16 181.31V183.524H559.778V181.31H556.16ZM556.502 185.09L554.414 183.884V180.95L556.502 179.744H559.778V177.566H555.314V176H559.436L561.524 177.206V185.09H561.056L559.778 184.352L558.5 185.09H556.502ZM570.149 185.09H567.431L566.153 184.352V188.6H564.407V175.91H565.721L566.153 176.648L567.431 175.91H570.149L572.237 177.116V183.884L570.149 185.09ZM566.153 177.476V183.524H570.491V177.476H566.153ZM580.854 185.09H578.136L576.858 184.352V188.6H575.112V175.91H576.426L576.858 176.648L578.136 175.91H580.854L582.942 177.116V183.884L580.854 185.09ZM576.858 177.476V183.524H581.196V177.476H576.858ZM587.905 185L585.817 183.794V171.86H587.563V183.434H589.723V185H587.905ZM592.358 188.6L593.924 184.586L590.45 176H592.196L594.752 182.408H594.788L597.326 176H599.072L594.068 188.6H592.358ZM613.19 177.116V185H611.444V177.476H607.286V185H605.54V175.91H606.854L607.286 176.648L608.564 175.91H611.102L613.19 177.116ZM623.719 183.884L621.631 185.09H618.157L616.069 183.884V177.116L618.157 175.91H621.631L623.719 177.116V183.884ZM617.815 177.476V183.524H621.973V177.476H617.815ZM633.924 185L631.98 178.124H631.944L630.018 185H627.948L625.698 176H627.318L629.028 183.038H629.064L631.044 176H632.898L634.878 183.038H634.914L636.624 176H638.244L635.994 185H633.924ZM644.177 177.566V176H645.833V174.488L647.579 173.48V176H649.739V177.566H647.579V183.434H649.739V185H647.921L645.833 183.794V177.566H644.177ZM659.912 183.884L657.824 185.09H654.35L652.262 183.884V177.116L654.35 175.91H657.824L659.912 177.116V183.884ZM654.008 177.476V183.524H658.166V177.476H654.008ZM670.491 175.91H673.209L675.297 177.116V183.884L673.209 185.09H670.491L669.213 184.352L667.935 185.09H667.467V171.86H669.213V176.648L670.491 175.91ZM669.213 177.476V183.524H673.551V177.476H669.213ZM685.282 183.434V185H680.26L678.172 183.794V177.116L680.26 175.91H683.194L685.282 177.116V181.112H679.918V183.434H685.282ZM679.918 177.476V179.546H683.536V177.476H679.918ZM694.219 181.31V183.524H697.837V181.31H694.219ZM694.561 185.09L692.473 183.884V180.95L694.561 179.744H697.837V177.566H693.373V176H697.495L699.583 177.206V185.09H699.115L697.837 184.352L696.559 185.09H694.561ZM712.883 185.09H710.165L708.887 184.352V188.6H707.141V175.91H708.455L708.887 176.648L710.165 175.91H712.883L714.971 177.116V183.884L712.883 185.09ZM708.887 177.476V183.524H713.225V177.476H708.887ZM719.232 181.31V183.524H722.85V181.31H719.232ZM719.574 185.09L717.486 183.884V180.95L719.574 179.744H722.85V177.566H718.386V176H722.508L724.596 177.206V185.09H724.128L722.85 184.352L721.572 185.09H719.574ZM732.501 177.566H729.225V185H727.479V176H728.793L729.225 176.738L730.503 176H732.501V177.566ZM733.755 177.566V176H735.411V174.488L737.157 173.48V176H739.317V177.566H737.157V183.434H739.317V185H737.499L735.411 183.794V177.566H733.755ZM754.166 183.884L752.078 185.09H748.604L746.516 183.884V177.116L748.604 175.91H752.078L754.166 177.116V183.884ZM748.262 177.476V183.524H752.42V177.476H748.262ZM756.325 177.566V176H757.981V173.066L760.069 171.86H761.887V173.426H759.727V176H761.887V177.566H759.727V185H757.981V177.566H756.325ZM768.897 178.34V173.516L770.985 172.31H775.179L777.267 173.516V175.37H775.467V173.93H770.697V177.746H775.179L777.267 178.952V183.884L775.179 185.09H770.805L768.717 183.884V182.03H770.517V183.47H775.467V179.546H770.985L768.897 178.34ZM786.061 185.09H783.343L782.065 184.352V188.6H780.319V175.91H781.633L782.065 176.648L783.343 175.91H786.061L788.149 177.116V183.884L786.061 185.09ZM782.065 177.476V183.524H786.403V177.476H782.065ZM792.41 181.31V183.524H796.028V181.31H792.41ZM792.752 185.09L790.664 183.884V180.95L792.752 179.744H796.028V177.566H791.564V176H795.686L797.774 177.206V185.09H797.306L796.028 184.352L794.75 185.09H792.752ZM802.403 177.566V183.434H807.407V185H802.745L800.657 183.794V177.206L802.745 176H807.407V177.566H802.403ZM817.03 183.434V185H812.008L809.92 183.794V177.116L812.008 175.91H814.942L817.03 177.116V181.112H811.666V183.434H817.03ZM811.666 177.476V179.546H815.284V177.476H811.666ZM821.885 179.33V185H820.085V172.4H827.447V174.02H821.885V177.71H826.367V179.33H821.885ZM837.082 183.884L834.994 185.09H831.52L829.432 183.884V177.116L831.52 175.91H834.994L837.082 177.116V183.884ZM831.178 177.476V183.524H835.336V177.476H831.178ZM844.983 177.566H841.707V185H839.961V176H841.275L841.707 176.738L842.985 176H844.983V177.566ZM848.704 177.566V183.434H853.708V185H849.046L846.958 183.794V177.206L849.046 176H853.708V177.566H848.704ZM863.331 183.434V185H858.309L856.221 183.794V177.116L858.309 175.91H861.243L863.331 177.116V181.112H857.967V183.434H863.331ZM857.967 177.476V179.546H861.585V177.476H857.967ZM872.861 179.33V183.38H878.243V185H871.061V172.4H878.243V174.02H872.861V177.71H877.163V179.33H872.861ZM888.235 177.116V185H886.489V177.476H882.331V185H880.585V175.91H881.899L882.331 176.648L883.609 175.91H886.147L888.235 177.116ZM890.394 177.566V176H892.05V174.488L893.796 173.48V176H895.956V177.566H893.796V183.434H895.956V185H894.138L892.05 183.794V177.566H890.394ZM905.589 183.434V185H900.567L898.479 183.794V177.116L900.567 175.91H903.501L905.589 177.116V181.112H900.225V183.434H905.589ZM900.225 177.476V179.546H903.843V177.476H900.225ZM913.485 177.566H910.209V185H908.463V176H909.777L910.209 176.738L911.487 176H913.485V177.566ZM921.202 185.09H918.484L917.206 184.352V188.6H915.46V175.91H916.774L917.206 176.648L918.484 175.91H921.202L923.29 177.116V183.884L921.202 185.09ZM917.206 177.476V183.524H921.544V177.476H917.206ZM931.187 177.566H927.911V185H926.165V176H927.479L927.911 176.738L929.189 176H931.187V177.566ZM934.907 176V185H933.161V176H934.907ZM933.071 173.786V171.86H934.997V173.786H933.071ZM944.552 180.86V183.794L942.464 185H937.784V183.434H942.806V181.22H939.872L937.784 180.014V177.206L939.872 176H944.372V177.566H939.53V179.654H942.464L944.552 180.86ZM954.544 183.434V185H949.522L947.434 183.794V177.116L949.522 175.91H952.456L954.544 177.116V181.112H949.18V183.434H954.544ZM949.18 177.476V179.546H952.798V177.476H949.18ZM957.779 185V182.3H960.479V185H957.779ZM974.039 172.4L978.539 185H976.775L975.713 182.012H970.133L969.071 185H967.307L971.807 172.4H974.039ZM972.905 174.182L970.709 180.392H975.137L972.941 174.182H972.905ZM982.428 185L980.34 183.794V171.86H982.086V183.434H984.246V185H982.428ZM988.141 185L986.053 183.794V171.86H987.799V183.434H989.959V185H988.141ZM1000.92 174.02V185H999.124V174.02H995.542V172.4H1004.51V174.02H1000.92ZM1008.23 185H1006.48V171.86H1008.23V176.648L1009.5 175.91H1012.22L1014.31 177.116V185H1012.56V177.476H1008.23V185ZM1024.29 183.434V185H1019.27L1017.18 183.794V177.116L1019.27 175.91H1022.21L1024.29 177.116V181.112H1018.93V183.434H1024.29ZM1018.93 177.476V179.546H1022.55V177.476H1018.93ZM1040.57 177.566L1039.01 178.466V178.502L1040.57 179.402V183.794L1038.49 185H1032.02V172.4H1038.49L1040.57 173.606V177.566ZM1033.82 179.294V183.38H1038.77V179.294H1033.82ZM1033.82 174.02V177.674H1038.77V174.02H1033.82ZM1050.75 183.434V185H1045.73L1043.64 183.794V177.116L1045.73 175.91H1048.66L1050.75 177.116V181.112H1045.39V183.434H1050.75ZM1045.39 177.476V179.546H1049V177.476H1045.39ZM1060.39 180.86V183.794L1058.3 185H1053.62V183.434H1058.65V181.22H1055.71L1053.62 180.014V177.206L1055.71 176H1060.21V177.566H1055.37V179.654H1058.3L1060.39 180.86ZM1062.55 177.566V176H1064.21V174.488L1065.96 173.48V176H1068.12V177.566H1065.96V183.434H1068.12V185H1066.3L1064.21 183.794V177.566H1062.55ZM1071 185V182.3H1073.7V185H1071ZM1071.63 180.176L1071.16 171.86H1073.54L1073.07 180.176H1071.63Z" fill="white"/>
<path d="M219.563 42.7183V26.7746L226.099 23H240.352L246.887 26.7746V34.2676H239V29.7606H227.451V39.169H240.352L246.887 42.9437V59.2253L240.352 63H225.535L219 59.2253V51.7324H226.887V56.2394H239V46.493H226.099L219.563 42.7183Z" fill="white"/>
<path d="M264.368 45.8169V62.7183H256.48V23.2817H280.649V30.0423H264.368V39.0563H277.269V45.8169H264.368Z" fill="white"/>
<path d="M294.737 45.8169V55.9577H310.456V62.7183H286.85V23.2817H310.456V30.0423H294.737V39.0563H307.075V45.8169H294.737Z" fill="white"/>
<circle cx="167" cy="53" r="37" fill="#1656BD"/>
<path d="M183.929 42L182 36.649L187 33.351H180.893L179 28L177.107 33.351H171L176 36.649L174.071 42L179 38.6683L183.929 42Z" fill="white"/>
<path d="M197.464 50L196.5 47.3245L199 45.6755H195.946L195 43L194.054 45.6755H191L193.5 47.3245L192.536 50L195 48.3341L197.464 50Z" fill="white"/>
<path d="M185.464 60L184.5 57.3245L187 55.6755H183.946L183 53L182.054 55.6755H179L181.5 57.3245L180.536 60L183 58.3341L185.464 60Z" fill="white"/>
<path d="M220.272 79.82V76.068L221.896 75.13H225.158L226.782 76.068V77.51H225.382V76.39H221.672V79.358H225.158L226.782 80.296V84.132L225.158 85.07H221.756L220.132 84.132V82.69H221.532V83.81H225.382V80.758H221.896L220.272 79.82ZM232.641 76.46V85H231.241V76.46H228.455V75.2H235.427V76.46H232.641ZM240.661 75.2L244.161 85H242.789L241.963 82.676H237.623L236.797 85H235.425L238.925 75.2H240.661ZM239.779 76.586L238.071 81.416H241.515L239.807 76.586H239.779ZM249.215 81.094H247.101V85H245.701V75.2H250.727L252.351 76.138V80.156L250.727 81.094L252.981 85H251.427L249.215 81.094ZM247.101 76.46V79.834H250.951V76.46H247.101ZM259.912 80.59V85H258.512V75.2H264.238V76.46H259.912V79.33H263.398V80.59H259.912ZM273.272 84.132L271.648 85.07H267.546L265.922 84.132V76.068L267.546 75.13H271.648L273.272 76.068V84.132ZM267.322 76.39V83.81H271.872V76.39H267.322ZM279.307 81.094H277.193V85H275.793V75.2H280.819L282.443 76.138V80.156L280.819 81.094L283.073 85H281.519L279.307 81.094ZM277.193 76.46V79.834H281.043V76.46H277.193ZM290.497 82.55H291.897V84.132L290.273 85.07H286.591L284.967 84.132V76.068L286.591 75.13H290.273L291.897 76.068V77.65H290.497V76.39H286.367V83.81H290.497V82.55ZM295.678 80.59V83.74H299.864V85H294.278V75.2H299.864V76.46H295.678V79.33H299.024V80.59H295.678ZM306.861 80.59V83.74H311.047V85H305.461V75.2H311.047V76.46H306.861V79.33H310.207V80.59H306.861ZM314.408 77.594V85H313.008V75.2H314.282L319.35 82.606H319.378V75.2H320.778V85H319.504L314.436 77.594H314.408ZM326.649 76.46V85H325.249V76.46H322.463V75.2H329.435V76.46H326.649ZM332.51 80.59V83.74H336.696V85H331.11V75.2H336.696V76.46H332.51V79.33H335.856V80.59H332.51ZM342.17 81.094H340.056V85H338.656V75.2H343.682L345.306 76.138V80.156L343.682 81.094L345.936 85H344.382L342.17 81.094ZM340.056 76.46V79.834H343.906V76.46H340.056ZM347.83 85V75.2H352.716L354.34 76.138V80.296L352.716 81.234H349.23V85H347.83ZM349.23 76.46V79.974H352.94V76.46H349.23ZM360.094 81.094H357.98V85H356.58V75.2H361.606L363.23 76.138V80.156L361.606 81.094L363.86 85H362.306L360.094 81.094ZM357.98 76.46V79.834H361.83V76.46H357.98ZM365.754 85V75.2H367.154V85H365.754ZM369.678 79.82V76.068L371.302 75.13H374.564L376.188 76.068V77.51H374.788V76.39H371.078V79.358H374.564L376.188 80.296V84.132L374.564 85.07H371.162L369.538 84.132V82.69H370.938V83.81H374.788V80.758H371.302L369.678 79.82ZM380.101 80.59V83.74H384.287V85H378.701V75.2H384.287V76.46H380.101V79.33H383.447V80.59H380.101Z" fill="white"/>
<rect y="717" width="1440" height="117" fill="#90C7F4"/>
<path d="M0 727H1440V850H0V727Z" fill="#1656BD"/>
</svg>
