<svg width="255" height="74" viewBox="0 0 255 74" fill="none" xmlns="http://www.w3.org/2000/svg">
<path d="M89.5634 26.7183V10.7746L96.0986 7H110.352L116.887 10.7746V18.2676H109V13.7606H97.4507V23.169H110.352L116.887 26.9437V43.2253L110.352 47H95.5352L89 43.2253V35.7324H96.8873V40.2394H109V30.493H96.0986L89.5634 26.7183Z" fill="white"/>
<path d="M134.368 29.8169V46.7183H126.48V7.28169H150.649V14.0423H134.368V23.0563H147.269V29.8169H134.368Z" fill="white"/>
<path d="M164.737 29.8169V39.9577H180.456V46.7183H156.85V7.28169H180.456V14.0423H164.737V23.0563H177.075V29.8169H164.737Z" fill="white"/>
<circle cx="37" cy="37" r="37" fill="#1656BD"/>
<path d="M53.9286 26L52 20.649L57 17.351H50.8929L49 12L47.1071 17.351H41L46 20.649L44.0714 26L49 22.6683L53.9286 26Z" fill="white"/>
<path d="M67.4643 34L66.5 31.3245L69 29.6755H65.9464L65 27L64.0536 29.6755H61L63.5 31.3245L62.5357 34L65 32.3341L67.4643 34Z" fill="white"/>
<path d="M55.4643 44L54.5 41.3245L57 39.6755H53.9464L53 37L52.0536 39.6755H49L51.5 41.3245L50.5357 44L53 42.3341L55.4643 44Z" fill="white"/>
<path d="M90.2717 63.82V60.068L91.8957 59.13H95.1577L96.7817 60.068V61.51H95.3817V60.39H91.6717V63.358H95.1577L96.7817 64.296V68.132L95.1577 69.07H91.7557L90.1317 68.132V66.69H91.5317V67.81H95.3817V64.758H91.8957L90.2717 63.82ZM102.641 60.46V69H101.241V60.46H98.4552V59.2H105.427V60.46H102.641ZM110.661 59.2L114.161 69H112.789L111.963 66.676H107.623L106.797 69H105.425L108.925 59.2H110.661ZM109.779 60.586L108.071 65.416H111.515L109.807 60.586H109.779ZM119.215 65.094H117.101V69H115.701V59.2H120.727L122.351 60.138V64.156L120.727 65.094L122.981 69H121.427L119.215 65.094ZM117.101 60.46V63.834H120.951V60.46H117.101ZM129.912 64.59V69H128.512V59.2H134.238V60.46H129.912V63.33H133.398V64.59H129.912ZM143.272 68.132L141.648 69.07H137.546L135.922 68.132V60.068L137.546 59.13H141.648L143.272 60.068V68.132ZM137.322 60.39V67.81H141.872V60.39H137.322ZM149.307 65.094H147.193V69H145.793V59.2H150.819L152.443 60.138V64.156L150.819 65.094L153.073 69H151.519L149.307 65.094ZM147.193 60.46V63.834H151.043V60.46H147.193ZM160.497 66.55H161.897V68.132L160.273 69.07H156.591L154.967 68.132V60.068L156.591 59.13H160.273L161.897 60.068V61.65H160.497V60.39H156.367V67.81H160.497V66.55ZM165.678 64.59V67.74H169.864V69H164.278V59.2H169.864V60.46H165.678V63.33H169.024V64.59H165.678ZM176.861 64.59V67.74H181.047V69H175.461V59.2H181.047V60.46H176.861V63.33H180.207V64.59H176.861ZM184.408 61.594V69H183.008V59.2H184.282L189.35 66.606H189.378V59.2H190.778V69H189.504L184.436 61.594H184.408ZM196.649 60.46V69H195.249V60.46H192.463V59.2H199.435V60.46H196.649ZM202.51 64.59V67.74H206.696V69H201.11V59.2H206.696V60.46H202.51V63.33H205.856V64.59H202.51ZM212.17 65.094H210.056V69H208.656V59.2H213.682L215.306 60.138V64.156L213.682 65.094L215.936 69H214.382L212.17 65.094ZM210.056 60.46V63.834H213.906V60.46H210.056ZM217.83 69V59.2H222.716L224.34 60.138V64.296L222.716 65.234H219.23V69H217.83ZM219.23 60.46V63.974H222.94V60.46H219.23ZM230.094 65.094H227.98V69H226.58V59.2H231.606L233.23 60.138V64.156L231.606 65.094L233.86 69H232.306L230.094 65.094ZM227.98 60.46V63.834H231.83V60.46H227.98ZM235.754 69V59.2H237.154V69H235.754ZM239.678 63.82V60.068L241.302 59.13H244.564L246.188 60.068V61.51H244.788V60.39H241.078V63.358H244.564L246.188 64.296V68.132L244.564 69.07H241.162L239.538 68.132V66.69H240.938V67.81H244.788V64.758H241.302L239.678 63.82ZM250.101 64.59V67.74H254.287V69H248.701V59.2H254.287V60.46H250.101V63.33H253.447V64.59H250.101Z" fill="white"/>
</svg>
