<svg width="1440" height="850" viewBox="0 0 1440 850" fill="none" xmlns="http://www.w3.org/2000/svg">
<rect width="1440" height="850" fill="black"/>
<circle cx="720.5" cy="424.5" r="279.5" fill="black"/>
<g filter="url(#filter0_ddd)">
<circle cx="720.5" cy="424.5" r="279.5" fill="url(#paint0_radial)"/>
<circle cx="720.5" cy="424.5" r="274.5" stroke="white" stroke-width="10"/>
</g>
<path d="M219.563 42.7183V26.7746L226.099 23H240.352L246.887 26.7746V34.2676H239V29.7606H227.451V39.169H240.352L246.887 42.9437V59.2253L240.352 63H225.535L219 59.2253V51.7324H226.887V56.2394H239V46.493H226.099L219.563 42.7183Z" fill="white"/>
<path d="M264.368 45.8169V62.7183H256.48V23.2817H280.649V30.0423H264.368V39.0563H277.269V45.8169H264.368Z" fill="white"/>
<path d="M294.737 45.8169V55.9577H310.456V62.7183H286.85V23.2817H310.456V30.0423H294.737V39.0563H307.075V45.8169H294.737Z" fill="white"/>
<circle cx="167" cy="53" r="37" fill="#1656BD"/>
<path d="M183.929 42L182 36.649L187 33.351H180.893L179 28L177.107 33.351H171L176 36.649L174.071 42L179 38.6683L183.929 42Z" fill="white"/>
<path d="M197.464 50L196.5 47.3245L199 45.6755H195.946L195 43L194.054 45.6755H191L193.5 47.3245L192.536 50L195 48.3341L197.464 50Z" fill="white"/>
<path d="M185.464 60L184.5 57.3245L187 55.6755H183.946L183 53L182.054 55.6755H179L181.5 57.3245L180.536 60L183 58.3341L185.464 60Z" fill="white"/>
<path d="M220.272 79.82V76.068L221.896 75.13H225.158L226.782 76.068V77.51H225.382V76.39H221.672V79.358H225.158L226.782 80.296V84.132L225.158 85.07H221.756L220.132 84.132V82.69H221.532V83.81H225.382V80.758H221.896L220.272 79.82ZM232.641 76.46V85H231.241V76.46H228.455V75.2H235.427V76.46H232.641ZM240.661 75.2L244.161 85H242.789L241.963 82.676H237.623L236.797 85H235.425L238.925 75.2H240.661ZM239.779 76.586L238.071 81.416H241.515L239.807 76.586H239.779ZM249.215 81.094H247.101V85H245.701V75.2H250.727L252.351 76.138V80.156L250.727 81.094L252.981 85H251.427L249.215 81.094ZM247.101 76.46V79.834H250.951V76.46H247.101ZM259.912 80.59V85H258.512V75.2H264.238V76.46H259.912V79.33H263.398V80.59H259.912ZM273.272 84.132L271.648 85.07H267.546L265.922 84.132V76.068L267.546 75.13H271.648L273.272 76.068V84.132ZM267.322 76.39V83.81H271.872V76.39H267.322ZM279.307 81.094H277.193V85H275.793V75.2H280.819L282.443 76.138V80.156L280.819 81.094L283.073 85H281.519L279.307 81.094ZM277.193 76.46V79.834H281.043V76.46H277.193ZM290.497 82.55H291.897V84.132L290.273 85.07H286.591L284.967 84.132V76.068L286.591 75.13H290.273L291.897 76.068V77.65H290.497V76.39H286.367V83.81H290.497V82.55ZM295.678 80.59V83.74H299.864V85H294.278V75.2H299.864V76.46H295.678V79.33H299.024V80.59H295.678ZM306.861 80.59V83.74H311.047V85H305.461V75.2H311.047V76.46H306.861V79.33H310.207V80.59H306.861ZM314.408 77.594V85H313.008V75.2H314.282L319.35 82.606H319.378V75.2H320.778V85H319.504L314.436 77.594H314.408ZM326.649 76.46V85H325.249V76.46H322.463V75.2H329.435V76.46H326.649ZM332.51 80.59V83.74H336.696V85H331.11V75.2H336.696V76.46H332.51V79.33H335.856V80.59H332.51ZM342.17 81.094H340.056V85H338.656V75.2H343.682L345.306 76.138V80.156L343.682 81.094L345.936 85H344.382L342.17 81.094ZM340.056 76.46V79.834H343.906V76.46H340.056ZM347.83 85V75.2H352.716L354.34 76.138V80.296L352.716 81.234H349.23V85H347.83ZM349.23 76.46V79.974H352.94V76.46H349.23ZM360.094 81.094H357.98V85H356.58V75.2H361.606L363.23 76.138V80.156L361.606 81.094L363.86 85H362.306L360.094 81.094ZM357.98 76.46V79.834H361.83V76.46H357.98ZM365.754 85V75.2H367.154V85H365.754ZM369.678 79.82V76.068L371.302 75.13H374.564L376.188 76.068V77.51H374.788V76.39H371.078V79.358H374.564L376.188 80.296V84.132L374.564 85.07H371.162L369.538 84.132V82.69H370.938V83.81H374.788V80.758H371.302L369.678 79.82ZM380.101 80.59V83.74H384.287V85H378.701V75.2H384.287V76.46H380.101V79.33H383.447V80.59H380.101Z" fill="white"/>
<path d="M572.486 406V390.452L560.786 369.6H568.69L576.074 383.224H576.178L583.614 369.6H591.518L579.766 390.504V406H572.486ZM625.063 402.776L619.031 406.26H602.755L596.723 402.776V372.824L602.755 369.34H619.031L625.063 372.824V402.776ZM604.003 375.58V400.02H617.783V375.58H604.003ZM654.955 369.6H662.235V402.776L656.203 406.26H639.927L633.895 402.776V369.6H641.175V399.5H654.955V369.6ZM671.066 388.32V368.04H680.946V372.304L675.33 388.32H671.066ZM717.417 406H709.409L701.609 392.272H697.085V406H689.805V369.6H709.513L715.545 373.084V388.788L709.513 392.272L717.417 406ZM697.085 375.84V386.032H708.265V375.84H697.085ZM731.667 390.4V399.76H746.175V406H724.387V369.6H746.175V375.84H731.667V384.16H743.055V390.4H731.667ZM773.714 382.444V406H766.434V369.6H773.246L788.95 393.156H789.054V369.6H796.334V406H789.522L773.818 382.444H773.714ZM833.52 402.776L827.488 406.26H811.212L805.18 402.776V372.824L811.212 369.34H827.488L833.52 372.824V402.776ZM812.46 375.58V400.02H826.24V375.58H812.46ZM856.34 375.84V406H849.06V375.84H839.232V369.6H866.168V375.84H856.34ZM627.54 464.4V473.76H642.048V480H620.26V443.6H642.048V449.84H627.54V458.16H638.928V464.4H627.54ZM648.799 480V443.6H656.079V473.76H668.507V480H648.799ZM674.24 480V443.6H681.52V480H674.24ZM703.338 467.26V461.02H716.598V476.776L710.566 480.26H695.85L689.818 476.776V446.824L695.85 443.34H710.566L716.598 446.824V454.26H709.318V449.58H697.098V474.02H709.318V467.26H703.338ZM724.92 480V443.6H732.2V480H724.92ZM766.758 458.524L762.234 461.124V461.228L766.758 463.828V476.516L760.726 480H741.018V443.6H760.726L766.758 447.084V458.524ZM748.298 464.296V473.76H759.478V464.296H748.298ZM748.298 449.84V458.056H759.478V449.84H748.298ZM775.6 480V443.6H782.88V473.76H795.308V480H775.6ZM808.321 464.4V473.76H822.829V480H801.041V443.6H822.829V449.84H808.321V458.16H819.709V464.4H808.321Z" fill="white"/>
<defs>
<filter id="filter0_ddd" x="431" y="139" width="589" height="589" filterUnits="userSpaceOnUse" color-interpolation-filters="sRGB">
<feFlood flood-opacity="0" result="BackgroundImageFix"/>
<feColorMatrix in="SourceAlpha" type="matrix" values="0 0 0 0 0 0 0 0 0 0 0 0 0 0 0 0 0 0 127 0"/>
<feOffset dy="2"/>
<feGaussianBlur stdDeviation="2"/>
<feColorMatrix type="matrix" values="0 0 0 0 1 0 0 0 0 0.78 0 0 0 0 0 0 0 0 1 0"/>
<feBlend mode="normal" in2="BackgroundImageFix" result="effect1_dropShadow"/>
<feColorMatrix in="SourceAlpha" type="matrix" values="0 0 0 0 0 0 0 0 0 0 0 0 0 0 0 0 0 0 127 0"/>
<feOffset dx="5" dy="4"/>
<feGaussianBlur stdDeviation="1"/>
<feColorMatrix type="matrix" values="0 0 0 0 0.754167 0 0 0 0 0.61716 0 0 0 0 0.411649 0 0 0 1 0"/>
<feBlend mode="normal" in2="effect1_dropShadow" result="effect2_dropShadow"/>
<feColorMatrix in="SourceAlpha" type="matrix" values="0 0 0 0 0 0 0 0 0 0 0 0 0 0 0 0 0 0 127 0"/>
<feOffset dx="5" dy="9"/>
<feGaussianBlur stdDeviation="7.5"/>
<feColorMatrix type="matrix" values="0 0 0 0 0.929167 0 0 0 0 0.249791 0 0 0 0 0.10066 0 0 0 0.72 0"/>
<feBlend mode="normal" in2="effect2_dropShadow" result="effect3_dropShadow"/>
<feBlend mode="normal" in="SourceGraphic" in2="effect3_dropShadow" result="shape"/>
</filter>
<radialGradient id="paint0_radial" cx="0" cy="0" r="1" gradientUnits="userSpaceOnUse" gradientTransform="translate(721 425) rotate(90) scale(790)">
<stop stop-color="#F45656"/>
<stop offset="1" stop-opacity="0"/>
</radialGradient>
</defs>
</svg>
